# xmcd CD database file
#
# Track frame offsets:
#	150
#	15550
#	27485
#	37707
#	56957
#	69072
#	89280
#	103522
#	117257
#	130135
#	142162
#	149482
#	161055
#	174510
#	185792
#	200900
#	209787
#	218645
#	226982
#	244987
#
# Disc length: 3448 seconds
#
# Revision: 0
# Processed by: cddbd v1.5.1PL0 Copyright (c) Steve Scherf et al.
# Submitted via: CDex 1.51
#
DISCID=310d7614
DTITLE=ArmandoTrovaioli - Ciao! Ciao! Trovaioli!
DYEAR=1965
DGENRE=Jazz
TTITLE0=Seven Golden Men from Sette Uomini D'oro
TTITLE1=Annna from Ieri, Oggi, Domani
TTITLE2=Allegra from Il Marito e Mio ... e L'ammazzo Quando Mi Pare
TTITLE3=F.M.B. Shake from LA Famiglia Benvenuti
TTITLE4=Decisione from La Famiglia Benvenuti
TTITLE5=Woman's Parfume from Profumo Di Donna
TTITLE6=Sei Mesi Di Felicita' from Dramma Della Gelosia
TTITLE7=Little Shakie Girl from Permette? Recco Papaleo
TTITLE8=Francoise from Don Giovanni In Sicilia
TTITLE9=Catherine Dixie from Il Marito e Mio ... e L'ammazzo Quando Mi Pare
TTITLE10=Sette Per Il Grande Colpo from Il Grande Colpo Dei Sette Uomini D'oro
TTITLE11=Infanzia Di Paolo from Paolo Il Caldo
TTITLE12=Strip Cha Cha Cha from Toto Di Notte N.1
TTITLE13=La Famiglia from La Famiglia
TTITLE14=Rossana Slow from Sette Uomini D'oro
TTITLE15=e Smetti Di Fare Il Profeta from Il Profeta
TTITLE16=Love Theme (Variation) from Il Profeta
TTITLE17=Passeggiata from Inutile from L'uccello Migratore
TTITLE18=Main Theme from Dramma Della Gelosia
TTITLE19=Come Un Respiro from L'uccello Migratore
EXTD=YEAR: 1965
EXTT0=
EXTT1=
EXTT2=
EXTT3=
EXTT4=
EXTT5=
EXTT6=
EXTT7=
EXTT8=
EXTT9=
EXTT10=
EXTT11=
EXTT12=
EXTT13=
EXTT14=
EXTT15=
EXTT16=
EXTT17=
EXTT18=
EXTT19=
PLAYORDER=
